<svg width="17" height="15" viewBox="0 0 17 15" fill="none" xmlns="http://www.w3.org/2000/svg">
<g clip-path="url(#clip0_107_409)">
<path fill-rule="evenodd" clip-rule="evenodd" d="M11.4995 7.20341C12.5162 7.20341 13.4382 7.61678 14.1043 8.28317C14.7707 8.94923 15.1841 9.87128 15.1841 10.888C15.1841 11.9046 14.7707 12.8267 14.1043 13.4931C13.4382 14.1591 12.5162 14.5725 11.4995 14.5725C10.4828 14.5725 9.56078 14.1591 8.8944 13.4931C8.22834 12.8267 7.81496 11.9046 7.81496 10.888C7.81496 9.87128 8.22834 8.94923 8.8944 8.28317C9.56078 7.61678 10.4828 7.20341 11.4995 7.20341ZM3.30166 1.5602L5.59799 4.25132L4.97809 4.7829L2.68176 2.09178L3.30166 1.5602ZM6.26604 13.1557H7.37569C7.53772 13.4492 7.73063 13.7235 7.94944 13.9752H5.44658V7.96708L0.401701 2.0536C0.197502 1.78632 0.0753148 1.52468 0.0258421 1.28594C-0.0269508 1.02596 0.00226792 0.787898 0.103205 0.585359C0.208459 0.376179 0.382776 0.214148 0.615862 0.11321C0.80844 0.0321946 1.04086 -0.00897725 1.30483 0.00164775L15.8896 0.000651652C16.1267 0.00363993 16.3243 0.0458079 16.484 0.120515C16.7161 0.229089 16.8695 0.401413 16.9458 0.615242C17.0152 0.808484 17.0162 1.0263 16.9571 1.24942C16.894 1.48616 16.7566 1.74282 16.558 1.99018L12.8582 6.37964C12.5643 6.29098 12.2579 6.23055 11.9428 6.201L15.9222 1.47919C16.047 1.32214 16.132 1.1694 16.1669 1.03792C16.1845 0.971843 16.1885 0.920046 16.1778 0.889831C16.1748 0.880866 16.1612 0.869909 16.1387 0.859284C16.0832 0.833718 16.0002 0.818445 15.8896 0.818113H1.28557C1.14014 0.810808 1.02293 0.827409 0.938928 0.863601C0.885803 0.887839 0.84928 0.917722 0.83301 0.949929C0.81342 0.988445 0.8101 1.04688 0.824709 1.11993C0.850276 1.24112 0.922326 1.38755 1.0475 1.5529L6.16643 7.55237L6.26604 7.818V13.1557ZM6.11762 4.86026L6.92944 5.81186L6.3092 6.34344L5.49739 5.39184L6.11762 4.86026ZM13.3227 10.5333V11.2432C13.3227 11.3817 13.2062 11.4986 13.0677 11.4986H12.1101V12.4561C12.1101 12.5953 11.9932 12.7118 11.8545 12.7118H11.1442C11.0055 12.7118 10.8886 12.5966 10.8886 12.4561V11.4986H9.93067C9.79254 11.4986 9.67566 11.3837 9.67566 11.2432V10.5333C9.67566 10.3922 9.79022 10.2774 9.93067 10.2774H10.8886V9.31977C10.8886 9.17932 11.0038 9.06444 11.1442 9.06444H11.8545C11.9952 9.06444 12.1101 9.18132 12.1101 9.31977V10.2774H13.0677C13.2081 10.2774 13.3227 10.3962 13.3227 10.5333Z" fill="#007AFF"/>
</g>
<defs>
<clipPath id="clip0_107_409">
<rect width="17" height="14.5725" fill="white"/>
</clipPath>
</defs>
</svg>
