<svg width="44" height="45" viewBox="0 0 44 45" fill="none" xmlns="http://www.w3.org/2000/svg">
<ellipse cx="21.5751" cy="22.7068" rx="21.5" ry="21.8222" fill="white"/>
<g clip-path="url(#clip0_2_371)">
<path d="M32.3757 20.276L23.2406 20.2755C22.8372 20.2755 22.5103 20.6073 22.5103 21.0168V23.9787C22.5103 24.3881 22.8372 24.72 23.2406 24.72H28.3849C27.8216 26.2038 26.7702 27.4464 25.4288 28.236L27.6223 32.0901C31.141 30.0246 33.2213 26.4005 33.2213 22.3435C33.2213 21.7659 33.1793 21.3529 33.0954 20.888C33.0317 20.5347 32.7295 20.276 32.3757 20.276Z" fill="#167EE6"/>
<path d="M22.0228 29.1705C19.5053 29.1705 17.3075 27.7744 16.1271 25.7084L12.3301 27.9298C14.2624 31.329 17.8822 33.618 22.0228 33.618C24.054 33.618 25.9707 33.0629 27.6218 32.0955V32.0902L25.4282 28.2361C24.4249 28.8267 23.2638 29.1705 22.0228 29.1705Z" fill="#12B347"/>
<path d="M27.6229 32.0954V32.0901L25.4294 28.236C24.4261 28.8266 23.2651 29.1704 22.024 29.1704V33.6179C24.0552 33.6179 25.972 33.0628 27.6229 32.0954Z" fill="#0F993E"/>
<path d="M15.2079 22.2522C15.2079 20.9927 15.5466 19.8143 16.1284 18.796L12.3313 16.5746C11.373 18.2451 10.8261 20.1852 10.8261 22.2522C10.8261 24.3191 11.373 26.2592 12.3313 27.9297L16.1284 25.7084C15.5466 24.69 15.2079 23.5117 15.2079 22.2522Z" fill="#FFD500"/>
<path d="M22.0228 15.3339C23.6645 15.3339 25.1724 15.926 26.3503 16.9108C26.6408 17.1538 27.0632 17.1362 27.3293 16.8661L29.397 14.7674C29.699 14.4609 29.6775 13.9592 29.3549 13.6751C27.3815 11.9374 24.8138 10.8864 22.0228 10.8864C17.8822 10.8864 14.2624 13.1754 12.3301 16.5746L16.1271 18.7959C17.3075 16.73 19.5053 15.3339 22.0228 15.3339Z" fill="#FE724C"/>
<path d="M26.3515 16.9108C26.642 17.1538 27.0644 17.1362 27.3305 16.8661L29.3982 14.7674C29.7002 14.4609 29.6786 13.9592 29.3561 13.6751C27.3827 11.9374 24.815 10.8864 22.024 10.8864V15.3339C23.6656 15.3339 25.1736 15.926 26.3515 16.9108Z" fill="#D93F21"/>
</g>
<defs>
<clipPath id="clip0_2_371">
<rect x="10.8254" y="10.8865" width="22.3958" height="22.7314" rx="10" fill="white"/>
</clipPath>
</defs>
</svg>
