<svg width="25" height="25" viewBox="0 0 25 25" fill="none" xmlns="http://www.w3.org/2000/svg">
<g clip-path="url(#clip0_215_1053)">
<path fill-rule="evenodd" clip-rule="evenodd" d="M6.75889 3.40013H18.2429C18.4169 3.40013 18.5748 3.47188 18.6878 3.58489C18.6967 3.59386 18.7057 3.60283 18.7129 3.61359C18.8115 3.72481 18.8707 3.87011 18.8707 4.03155V7.61918C18.8707 7.79139 18.799 7.94924 18.686 8.06405L18.6842 8.06584C18.5694 8.18065 18.4133 8.25061 18.2393 8.25061H6.75889C6.5831 8.25061 6.42703 8.17885 6.31402 8.06584C6.30505 8.05687 6.29609 8.0479 6.28891 8.03714C6.19025 7.92592 6.13105 7.78063 6.13105 7.61918V4.02976C6.13105 3.85755 6.20281 3.70149 6.31761 3.58668L6.31941 3.58489C6.43062 3.47009 6.58668 3.40013 6.75889 3.40013ZM16.7648 4.71499H17.1774V6.93933H16.7648V4.71499ZM18.1604 4.11227H6.84141V7.53667H18.1604V4.11227ZM16.0222 14.3568H18.0402C18.2124 14.3568 18.3559 14.4967 18.3559 14.6725V16.3748C18.3559 16.547 18.216 16.6905 18.0402 16.6905H16.0222C15.85 16.6905 15.7065 16.5506 15.7065 16.3748V14.6725C15.7082 14.4967 15.85 14.3568 16.0222 14.3568ZM16.0222 10.3099H18.0402C18.2124 10.3099 18.3559 10.4498 18.3559 10.6256V12.328C18.3559 12.5002 18.216 12.6437 18.0402 12.6437H16.0222C15.85 12.6437 15.7065 12.5037 15.7065 12.328V10.6256C15.7082 10.4516 15.85 10.3099 16.0222 10.3099ZM16.0222 18.4018H18.0402C18.2124 18.4018 18.3559 18.5417 18.3559 18.7175V20.4199C18.3559 20.5921 18.216 20.7356 18.0402 20.7356H16.0222C15.85 20.7356 15.7065 20.5956 15.7065 20.4199V18.7175C15.7082 18.5453 15.85 18.4018 16.0222 18.4018ZM11.4695 14.3568H13.4875C13.6597 14.3568 13.8032 14.4967 13.8032 14.6725V16.3748C13.8032 16.547 13.6633 16.6905 13.4875 16.6905H11.4695C11.2972 16.6905 11.1537 16.5506 11.1537 16.3748V14.6725C11.1555 14.4967 11.2972 14.3568 11.4695 14.3568ZM11.4695 10.3099H13.4875C13.6597 10.3099 13.8032 10.4498 13.8032 10.6256V12.328C13.8032 12.5002 13.6633 12.6437 13.4875 12.6437H11.4695C11.2972 12.6437 11.1537 12.5037 11.1537 12.328V10.6256C11.1555 10.4516 11.2972 10.3099 11.4695 10.3099ZM11.4695 18.4018H13.4875C13.6597 18.4018 13.8032 18.5417 13.8032 18.7175V20.4199C13.8032 20.5921 13.6633 20.7356 13.4875 20.7356H11.4695C11.2972 20.7356 11.1537 20.5956 11.1537 20.4199V18.7175C11.1555 18.5453 11.2972 18.4018 11.4695 18.4018ZM7.00106 10.3099H9.0191C9.19131 10.3099 9.33481 10.4498 9.33481 10.6256V12.328C9.33481 12.5002 9.19489 12.6437 9.0191 12.6437H7.00106C6.82885 12.6437 6.68534 12.5037 6.68534 12.328V10.6256C6.68714 10.4516 6.82885 10.3099 7.00106 10.3099ZM7.00106 18.4018H9.0191C9.19131 18.4018 9.33481 18.5417 9.33481 18.7175V20.4199C9.33481 20.5921 9.19489 20.7356 9.0191 20.7356H7.00106C6.82885 20.7356 6.68534 20.5956 6.68534 20.4199V18.7175C6.68714 18.5453 6.82885 18.4018 7.00106 18.4018ZM7.00106 14.3568H9.0191C9.19131 14.3568 9.33481 14.4967 9.33481 14.6725V16.3748C9.33481 16.547 9.19489 16.6905 9.0191 16.6905H7.00106C6.82885 16.6905 6.68534 16.5506 6.68534 16.3748V14.6725C6.68714 14.4967 6.82885 14.3568 7.00106 14.3568ZM5.26285 1H19.7389C20.0852 1 20.3991 1.14171 20.6287 1.36953L20.6323 1.37132C20.8601 1.60093 21.0018 1.91485 21.0018 2.26105V21.7796C21.0018 22.1258 20.8601 22.4397 20.6323 22.6693L20.6287 22.6729C20.3991 22.9007 20.0852 23.0424 19.7389 23.0424H5.26285C4.91664 23.0424 4.60272 22.9007 4.37311 22.6729L4.37132 22.6711C4.14171 22.4397 4 22.1258 4 21.7796V2.26285C4 1.91664 4.14171 1.60272 4.36953 1.37311L4.37132 1.37132C4.60272 1.14171 4.91664 1 5.26285 1ZM19.7389 1.84668H5.26285C5.14804 1.84668 5.044 1.89332 4.96866 1.96866C4.89332 2.044 4.84668 2.14804 4.84668 2.26285V21.7814C4.84668 21.8962 4.89332 22.0002 4.96687 22.0738L4.96866 22.0755C5.04221 22.1491 5.14625 22.1957 5.26105 22.1957H19.7372C19.852 22.1957 19.956 22.1491 20.0295 22.0755L20.0313 22.0738C20.1049 22.0002 20.1515 21.8962 20.1515 21.7814V2.26285C20.1515 2.14804 20.1049 2.044 20.0313 1.97045V1.96866C19.9578 1.89332 19.8538 1.84668 19.7389 1.84668Z" fill="black"/>
</g>
<defs>
<clipPath id="clip0_215_1053">
<rect width="17" height="22.0424" fill="white" transform="translate(4 1)"/>
</clipPath>
</defs>
</svg>
