<svg width="25" height="25" viewBox="0 0 25 25" fill="none" xmlns="http://www.w3.org/2000/svg">
<g clip-path="url(#clip0_215_1068)">
<path d="M12.5 15.125C13.9497 15.125 15.125 13.9497 15.125 12.5C15.125 11.0503 13.9497 9.875 12.5 9.875C11.0503 9.875 9.875 11.0503 9.875 12.5C9.875 13.9497 11.0503 15.125 12.5 15.125Z" stroke="#222222" stroke-width="2" stroke-linecap="round" stroke-linejoin="round"/>
<path d="M18.975 15.125C18.8585 15.3889 18.8238 15.6817 18.8752 15.9655C18.9267 16.2494 19.062 16.5113 19.2637 16.7175L19.3163 16.77C19.479 16.9325 19.608 17.1255 19.6961 17.338C19.7842 17.5504 19.8295 17.7781 19.8295 18.0081C19.8295 18.2381 19.7842 18.4658 19.6961 18.6783C19.608 18.8907 19.479 19.0837 19.3163 19.2462C19.1537 19.409 18.9607 19.538 18.7483 19.6261C18.5358 19.7142 18.3081 19.7595 18.0781 19.7595C17.8481 19.7595 17.6204 19.7142 17.408 19.6261C17.1955 19.538 17.0025 19.409 16.84 19.2462L16.7875 19.1937C16.5813 18.992 16.3194 18.8567 16.0355 18.8052C15.7517 18.7538 15.4589 18.7885 15.195 18.905C14.9362 19.0159 14.7155 19.2001 14.56 19.4348C14.4046 19.6696 14.3211 19.9447 14.32 20.2262V20.375C14.32 20.8391 14.1356 21.2842 13.8074 21.6124C13.4792 21.9406 13.0341 22.125 12.57 22.125C12.1059 22.125 11.6608 21.9406 11.3326 21.6124C11.0044 21.2842 10.82 20.8391 10.82 20.375V20.2962C10.8132 20.0066 10.7195 19.7257 10.5509 19.4901C10.3824 19.2545 10.1469 19.075 9.875 18.975C9.61109 18.8585 9.31833 18.8238 9.03449 18.8752C8.75064 18.9267 8.48872 19.062 8.2825 19.2637L8.23 19.3163C8.06747 19.479 7.87447 19.608 7.66202 19.6961C7.44957 19.7842 7.22185 19.8295 6.99187 19.8295C6.7619 19.8295 6.53418 19.7842 6.32173 19.6961C6.10928 19.608 5.91628 19.479 5.75375 19.3163C5.59104 19.1537 5.46196 18.9607 5.3739 18.7483C5.28583 18.5358 5.2405 18.3081 5.2405 18.0781C5.2405 17.8481 5.28583 17.6204 5.3739 17.408C5.46196 17.1955 5.59104 17.0025 5.75375 16.84L5.80625 16.7875C6.00797 16.5813 6.14329 16.3194 6.19475 16.0355C6.24622 15.7517 6.21148 15.4589 6.095 15.195C5.98408 14.9362 5.79991 14.7155 5.56516 14.56C5.3304 14.4046 5.05531 14.3211 4.77375 14.32H4.625C4.16087 14.32 3.71575 14.1356 3.38756 13.8074C3.05937 13.4792 2.875 13.0341 2.875 12.57C2.875 12.1059 3.05937 11.6608 3.38756 11.3326C3.71575 11.0044 4.16087 10.82 4.625 10.82H4.70375C4.99337 10.8132 5.27425 10.7195 5.50989 10.5509C5.74552 10.3824 5.925 10.1469 6.025 9.875C6.14148 9.61109 6.17622 9.31833 6.12475 9.03449C6.07329 8.75064 5.93797 8.48872 5.73625 8.2825L5.68375 8.23C5.52104 8.06747 5.39196 7.87447 5.3039 7.66202C5.21583 7.44957 5.1705 7.22185 5.1705 6.99187C5.1705 6.7619 5.21583 6.53418 5.3039 6.32173C5.39196 6.10928 5.52104 5.91628 5.68375 5.75375C5.84628 5.59104 6.03928 5.46196 6.25173 5.3739C6.46418 5.28583 6.6919 5.2405 6.92188 5.2405C7.15185 5.2405 7.37957 5.28583 7.59202 5.3739C7.80447 5.46196 7.99747 5.59104 8.16 5.75375L8.2125 5.80625C8.41872 6.00797 8.68064 6.14329 8.96448 6.19475C9.24833 6.24622 9.54109 6.21148 9.805 6.095H9.875C10.1338 5.98408 10.3545 5.79991 10.51 5.56516C10.6654 5.3304 10.7489 5.05531 10.75 4.77375V4.625C10.75 4.16087 10.9344 3.71575 11.2626 3.38756C11.5908 3.05937 12.0359 2.875 12.5 2.875C12.9641 2.875 13.4092 3.05937 13.7374 3.38756C14.0656 3.71575 14.25 4.16087 14.25 4.625V4.70375C14.2511 4.98531 14.3346 5.2604 14.49 5.49516C14.6455 5.72991 14.8662 5.91408 15.125 6.025C15.3889 6.14148 15.6817 6.17622 15.9655 6.12475C16.2494 6.07329 16.5113 5.93797 16.7175 5.73625L16.77 5.68375C16.9325 5.52104 17.1255 5.39196 17.338 5.3039C17.5504 5.21583 17.7781 5.1705 18.0081 5.1705C18.2381 5.1705 18.4658 5.21583 18.6783 5.3039C18.8907 5.39196 19.0837 5.52104 19.2462 5.68375C19.409 5.84628 19.538 6.03928 19.6261 6.25173C19.7142 6.46418 19.7595 6.6919 19.7595 6.92188C19.7595 7.15185 19.7142 7.37957 19.6261 7.59202C19.538 7.80447 19.409 7.99747 19.2462 8.16L19.1937 8.2125C18.992 8.41872 18.8567 8.68064 18.8052 8.96448C18.7538 9.24833 18.7885 9.54109 18.905 9.805V9.875C19.0159 10.1338 19.2001 10.3545 19.4348 10.51C19.6696 10.6654 19.9447 10.7489 20.2262 10.75H20.375C20.8391 10.75 21.2842 10.9344 21.6124 11.2626C21.9406 11.5908 22.125 12.0359 22.125 12.5C22.125 12.9641 21.9406 13.4092 21.6124 13.7374C21.2842 14.0656 20.8391 14.25 20.375 14.25H20.2962C20.0147 14.2511 19.7396 14.3346 19.5048 14.49C19.2701 14.6455 19.0859 14.8662 18.975 15.125Z" stroke="#222222" stroke-width="1.5" stroke-linecap="round" stroke-linejoin="round"/>
</g>
<defs>
<clipPath id="clip0_215_1068">
<rect width="21" height="21" fill="white" transform="translate(2 2)"/>
</clipPath>
</defs>
</svg>
