<?xml version="1.0" encoding="UTF-8" standalone="no"?>
<!DOCTYPE svg PUBLIC "-//W3C//DTD SVG 1.1//EN" "http://www.w3.org/Graphics/SVG/1.1/DTD/svg11.dtd">
<svg xmlns="http://www.w3.org/2000/svg" version="1.1" viewBox="0.00 0.00 400.00 400.00" width="400.00" height="400.00">
<g stroke-width="2.00" fill="none" stroke-linecap="butt">
<path stroke="#e5e5e5" vector-effect="non-scaling-stroke" d="
  M 279.96 128.00
  A 79.97 79.97 0.0 0 0 199.99 48.03
  A 79.97 79.97 0.0 0 0 120.02 128.00
  A 79.97 79.97 0.0 0 0 199.99 207.97
  A 79.97 79.97 0.0 0 0 279.96 128.00"
/>
<path stroke="#e5e5e5" vector-effect="non-scaling-stroke" d="
  M 318.85 285.63
  C 312.65 250.02 281.37 224.03 245.00 224.02
  Q 200.25 224.00 155.50 224.03
  C 118.28 224.06 87.04 250.09 81.04 286.56
  Q 79.97 293.07 79.99 306.50
  Q 80.01 325.58 80.00 344.75
  A 1.01 0.99 19.7 0 0 80.39 345.56
  Q 129.27 384.06 190.95 388.73
  Q 200.94 389.48 210.91 388.63
  Q 271.50 383.41 319.58 345.57
  A 1.07 1.04 -19.9 0 0 319.98 344.75
  Q 320.04 325.15 319.98 305.56
  Q 319.94 291.91 318.85 285.63"
/>
</g>
<path fill="#cbcbcb" d="
  M 194.57 0.00
  L 205.30 0.00
  C 312.43 3.63 396.12 87.87 400.00 194.57
  L 400.00 205.56
  C 395.94 312.42 312.26 396.49 204.94 400.00
  L 194.70 400.00
  C 88.02 395.80 3.86 313.10 0.00 205.68
  L 0.00 194.20
  C 3.91 87.07 88.07 4.08 194.57 0.00
  Z
  M 279.96 128.00
  A 79.97 79.97 0.0 0 0 199.99 48.03
  A 79.97 79.97 0.0 0 0 120.02 128.00
  A 79.97 79.97 0.0 0 0 199.99 207.97
  A 79.97 79.97 0.0 0 0 279.96 128.00
  Z
  M 318.85 285.63
  C 312.65 250.02 281.37 224.03 245.00 224.02
  Q 200.25 224.00 155.50 224.03
  C 118.28 224.06 87.04 250.09 81.04 286.56
  Q 79.97 293.07 79.99 306.50
  Q 80.01 325.58 80.00 344.75
  A 1.01 0.99 19.7 0 0 80.39 345.56
  Q 129.27 384.06 190.95 388.73
  Q 200.94 389.48 210.91 388.63
  Q 271.50 383.41 319.58 345.57
  A 1.07 1.04 -19.9 0 0 319.98 344.75
  Q 320.04 325.15 319.98 305.56
  Q 319.94 291.91 318.85 285.63
  Z"
/>
<circle fill="#ffffff" cx="199.99" cy="128.00" r="79.97"/>
<path fill="#ffffff" d="
  M 245.00 224.02
  C 281.37 224.03 312.65 250.02 318.85 285.63
  Q 319.94 291.91 319.98 305.56
  Q 320.04 325.15 319.98 344.75
  A 1.07 1.04 -19.9 0 1 319.58 345.57
  Q 271.50 383.41 210.91 388.63
  Q 200.94 389.48 190.95 388.73
  Q 129.27 384.06 80.39 345.56
  A 1.01 0.99 19.7 0 1 80.00 344.75
  Q 80.01 325.58 79.99 306.50
  Q 79.97 293.07 81.04 286.56
  C 87.04 250.09 118.28 224.06 155.50 224.03
  Q 200.25 224.00 245.00 224.02
  Z"
/>
</svg>
