<svg width="24" height="24" viewBox="0 0 24 24" fill="none" xmlns="http://www.w3.org/2000/svg">
<g clip-path="url(#clip0_2_373)">
<path d="M22.3757 10.276L13.2406 10.2755C12.8372 10.2755 12.5103 10.6073 12.5103 11.0168V13.9787C12.5103 14.3881 12.8372 14.72 13.2406 14.72H18.3849C17.8216 16.2038 16.7702 17.4464 15.4288 18.236L17.6223 22.0901C21.141 20.0246 23.2213 16.4005 23.2213 12.3435C23.2213 11.7659 23.1793 11.3529 23.0954 10.888C23.0317 10.5347 22.7295 10.276 22.3757 10.276Z" fill="#167EE6"/>
<path d="M12.0228 19.1705C9.50527 19.1705 7.30751 17.7744 6.12713 15.7084L2.33008 17.9298C4.26237 21.329 7.88219 23.618 12.0228 23.618C14.054 23.618 15.9707 23.0629 17.6218 22.0955V22.0902L15.4282 18.2361C14.4249 18.8267 13.2638 19.1705 12.0228 19.1705Z" fill="#12B347"/>
<path d="M17.6229 22.0954V22.0901L15.4294 18.236C14.4261 18.8266 13.2651 19.1704 12.024 19.1704V23.6179C14.0552 23.6179 15.972 23.0628 17.6229 22.0954Z" fill="#0F993E"/>
<path d="M5.20791 12.2522C5.20791 10.9927 5.54656 9.8143 6.12837 8.79596L2.33131 6.57458C1.37297 8.24512 0.826111 10.1852 0.826111 12.2522C0.826111 14.3191 1.37297 16.2592 2.33131 17.9297L6.12837 15.7084C5.54656 14.69 5.20791 13.5117 5.20791 12.2522Z" fill="#FFD500"/>
<path d="M12.0228 5.33387C13.6645 5.33387 15.1724 5.92595 16.3503 6.91082C16.6408 7.15376 17.0632 7.13622 17.3293 6.86607L19.397 4.76741C19.699 4.46089 19.6775 3.95915 19.3549 3.6751C17.3815 1.93743 14.8138 0.886414 12.0228 0.886414C7.88219 0.886414 4.26237 3.17541 2.33008 6.57455L6.12713 8.79593C7.30751 6.72999 9.50527 5.33387 12.0228 5.33387Z" fill="#FE724C"/>
<path d="M16.3515 6.91082C16.642 7.15376 17.0644 7.13622 17.3305 6.86607L19.3982 4.76741C19.7002 4.46089 19.6786 3.95915 19.3561 3.6751C17.3827 1.93739 14.815 0.886414 12.024 0.886414V5.33387C13.6656 5.33387 15.1736 5.92595 16.3515 6.91082Z" fill="#D93F21"/>
</g>
<defs>
<clipPath id="clip0_2_373">
<rect x="0.825439" y="0.886475" width="22.3958" height="22.7314" rx="10" fill="white"/>
</clipPath>
</defs>
</svg>
