<svg width="20" height="23" viewBox="0 0 20 23" fill="none" xmlns="http://www.w3.org/2000/svg">
<g clip-path="url(#clip0_2_446)">
<path fill-rule="evenodd" clip-rule="evenodd" d="M7.65977 17.7973V17.8669L4.44241 14.6495C4.24605 14.4519 4.13584 14.1846 4.13584 13.9061C4.13584 13.6275 4.24605 13.3602 4.44241 13.1626C4.6401 12.9657 4.90776 12.8551 5.18678 12.8551C5.46581 12.8551 5.73347 12.9657 5.93115 13.1626L8.44901 15.6786C7.92971 16.261 7.64804 17.0171 7.65977 17.7973ZM15.3818 14.069C15.8388 13.6463 16.3662 13.3067 16.9401 13.0656L16.9365 13.0729C16.9953 13.0801 17.055 13.0736 17.1109 13.0539C17.1668 13.0342 17.2174 13.0018 17.2587 12.9594C17.3128 12.9053 17.3497 12.8365 17.365 12.7616C17.4289 12.4439 17.4614 12.1206 17.462 11.7966C17.473 11.3919 17.473 10.9652 17.473 10.8041C17.473 10.1027 17.7348 9.67607 18.0809 9.49295C18.2162 9.42232 18.368 9.38943 18.5204 9.39773C18.6809 9.40611 18.8365 9.45527 18.9727 9.54056C19.3646 9.78045 19.6594 10.3188 19.6081 11.152L19.9963 11.1758L19.6063 11.152C19.6045 11.1703 19.6045 11.1887 19.6063 11.2069L19.6319 16.5594V16.5796C19.6468 17.1533 19.538 17.7234 19.3131 18.2514C19.0881 18.7794 18.7522 19.2528 18.3281 19.6394L16.6032 21.3644C16.2412 21.7285 15.8102 22.0166 15.3353 22.2118C14.8605 22.4071 14.3515 22.5056 13.8381 22.5016C12.7897 22.4944 11.7866 22.0731 11.0474 21.3296L8.77312 19.0553C8.51293 18.7948 8.32381 18.4721 8.22377 18.1177C8.17537 17.8935 8.1624 17.663 8.18532 17.4347C8.23421 16.9575 8.44637 16.5119 8.78594 16.173L8.85369 16.1035C8.8906 16.0865 8.92411 16.0629 8.95258 16.0339L12.7339 12.2342H12.7449L12.8823 12.0969C13.226 11.7527 13.6796 11.5401 14.1641 11.4962C14.6358 11.4479 15.11 11.5602 15.51 11.8149C15.5405 11.8403 15.5752 11.8601 15.6125 11.8735C15.6765 11.925 15.7377 11.98 15.7956 12.0383L16.5006 12.7085C14.1238 13.9171 13.1276 15.8563 15.0156 17.8815L15.3818 17.5428C15.1029 17.2713 14.8791 16.9487 14.7226 16.5924C14.5493 16.1878 14.5132 15.7376 14.62 15.3106C14.7524 14.8334 15.0164 14.4032 15.3818 14.069ZM10.2545 13.8218L8.76946 15.3106L4.74822 11.2893C4.55207 11.0909 4.44208 10.8231 4.44208 10.544C4.44208 10.265 4.55207 9.99722 4.74822 9.79876C4.84611 9.70112 4.96237 9.62383 5.09029 9.57134C5.2182 9.51885 5.35524 9.49221 5.4935 9.49295C5.76731 9.49454 6.02985 9.60218 6.22597 9.79326L10.2545 13.8218ZM12.1443 11.9357L10.6556 13.4245L10.6537 13.4263L5.34335 8.11592C5.1472 7.91745 5.0372 7.64967 5.0372 7.37063C5.0372 7.0916 5.1472 6.82381 5.34335 6.62535C5.54181 6.4292 5.8096 6.3192 6.08863 6.3192C6.36767 6.3192 6.63545 6.4292 6.83392 6.62535L12.1443 11.9357ZM14.7519 10.892C13.9689 10.8886 13.2116 11.1712 12.6222 11.6867L12.6204 11.6885L8.60832 7.67277C8.41184 7.47485 8.30159 7.20728 8.30159 6.9284C8.30159 6.64952 8.41184 6.38196 8.60832 6.18403C8.80624 5.98756 9.07381 5.87731 9.35268 5.87731C9.63157 5.87731 9.89913 5.98756 10.0971 6.18403L14.8032 10.892H14.7519Z" fill="#FFC83D"/>
<path fill-rule="evenodd" clip-rule="evenodd" d="M7.33836 20.1069C7.26171 20.0456 7.17375 20 7.07948 19.9727V19.9819C5.94903 19.6773 4.90878 19.1044 4.04707 18.3118C3.28081 17.5667 2.70328 16.6495 2.3624 15.6365C2.29182 15.4553 2.15354 15.3087 1.9768 15.2276C1.80007 15.1466 1.59873 15.1374 1.41537 15.2021C1.232 15.2668 1.08098 15.4003 0.994242 15.5743C0.907501 15.7483 0.891839 15.9492 0.950568 16.1346C1.3698 17.37 2.07796 18.4875 3.01612 19.3941C4.05244 20.3489 5.30368 21.0399 6.66381 21.4084C6.75807 21.4356 6.85679 21.4441 6.95432 21.4332C7.05186 21.4224 7.1463 21.3924 7.23225 21.3451C7.31821 21.2977 7.39399 21.2339 7.45528 21.1572C7.51657 21.0806 7.56217 20.9926 7.58946 20.8984C7.61676 20.8041 7.62521 20.7054 7.61436 20.6079C7.6035 20.5103 7.57354 20.4159 7.52618 20.3299C7.47882 20.244 7.415 20.1682 7.33836 20.1069ZM12.3678 3.92621C12.435 3.99879 12.5159 4.05729 12.6059 4.09834V4.10017C13.1585 4.35695 13.6735 4.68777 14.1368 5.0835C14.5671 5.45278 14.9442 5.87983 15.2575 6.3525C15.3102 6.43773 15.3796 6.5115 15.4614 6.56944C15.5432 6.62737 15.6358 6.6683 15.7337 6.68979C15.8316 6.71129 15.9328 6.71291 16.0314 6.69456C16.1299 6.67621 16.2238 6.63826 16.3074 6.58297C16.391 6.52768 16.4626 6.45617 16.5181 6.37267C16.5736 6.28918 16.6117 6.1954 16.6303 6.09689C16.6488 5.99838 16.6474 5.89715 16.6261 5.7992C16.6048 5.70125 16.5641 5.60857 16.5063 5.52665C16.1161 4.93765 15.6459 4.40579 15.1091 3.94635C14.5444 3.4638 13.9167 3.0603 13.2432 2.74694C13.1543 2.70361 13.0576 2.67838 12.9589 2.6727C12.8601 2.66701 12.7612 2.681 12.6679 2.71383C12.5746 2.74667 12.4888 2.79771 12.4153 2.86399C12.3419 2.93027 12.2824 3.01046 12.2402 3.09993C12.198 3.18939 12.174 3.28635 12.1696 3.38516C12.1652 3.48398 12.1804 3.58268 12.2144 3.67556C12.2485 3.76844 12.3006 3.85364 12.3678 3.92621ZM12.9228 1.10791C13.0185 1.28151 13.1792 1.41 13.3695 1.46512C14.5007 1.77182 15.541 2.34726 16.4019 3.14247C17.167 3.88502 17.7444 4.7989 18.0866 5.80865C18.1572 5.98982 18.2955 6.13645 18.4722 6.21752C18.6489 6.29859 18.8503 6.30775 19.0336 6.24306C19.217 6.17837 19.368 6.04491 19.4548 5.87089C19.5415 5.69686 19.5572 5.49593 19.4984 5.31057C19.0802 4.07297 18.3727 2.95303 17.4347 2.04377C16.3973 1.08942 15.1456 0.398561 13.7852 0.0294847C13.5948 -0.0256372 13.3904 -0.00287452 13.2168 0.0927652C13.0432 0.188405 12.9147 0.349088 12.8596 0.539465C12.8044 0.729842 12.8272 0.934318 12.9228 1.10791Z" fill="#0A7EFF"/>
</g>
<defs>
<clipPath id="clip0_2_446">
<rect width="20" height="22.5014" fill="white"/>
</clipPath>
</defs>
</svg>
